<svg width="17" height="17" viewBox="0 0 17 17" fill="none" xmlns="http://www.w3.org/2000/svg">
<path d="M5.92976 13.7798C5.72252 13.8898 5.46308 13.8722 5.27058 13.73L5.18074 13.6489L5.17195 13.6392L5.10652 13.5405C4.97791 13.2987 5.02303 12.9854 5.23738 12.7905L5.24129 12.7876L10.3809 8.29834C10.3895 8.2901 10.3934 8.28426 10.3946 8.28174V8.28076L10.378 8.26123V8.26025L5.23738 3.61182L5.15535 3.521C4.98891 3.29441 4.99502 2.97274 5.19441 2.75342C5.41796 2.50799 5.80133 2.48271 6.05183 2.71045V2.71143L11.1915 7.35889C11.7545 7.87225 11.7373 8.71008 11.1759 9.20557L11.1749 9.20654L6.03523 13.7085L6.0284 13.7144L5.92976 13.7798Z" fill="#686868" stroke="#686868" stroke-width="0.5"/>
</svg>
