<?xml version="1.0" standalone="no"?>
<!DOCTYPE svg PUBLIC "-//W3C//DTD SVG 20010904//EN"
 "http://www.w3.org/TR/2001/REC-SVG-20010904/DTD/svg10.dtd">
<svg version="1.0" xmlns="http://www.w3.org/2000/svg"
 width="301.000000pt" height="167.000000pt" viewBox="0 0 301.000000 167.000000"
 preserveAspectRatio="xMidYMid meet">

<g transform="translate(0.000000,167.000000) scale(0.100000,-0.100000)"
fill="#007240"
 stroke="none">
<path d="M1405 1574 c-344 -56 -612 -327 -642 -652 -9 -93 17 -103 125 -52 57
27 122 40 122 24 0 -18 -23 -44 -39 -44 -10 0 -49 -14 -85 -31 -48 -23 -75
-30 -96 -25 -29 5 -30 4 -30 -29 0 -32 2 -35 30 -35 16 0 59 14 93 30 35 17
67 30 70 30 4 0 7 -10 7 -23 0 -18 -14 -29 -84 -60 -47 -20 -90 -37 -96 -37
-7 0 -10 -7 -6 -16 3 -9 6 -20 6 -25 0 -17 45 -9 89 16 51 30 81 32 81 8 0
-12 -25 -30 -74 -54 -65 -32 -72 -38 -65 -57 11 -28 27 -28 69 3 39 29 65 32
74 9 3 -9 6 -17 6 -19 0 -2 -25 -16 -55 -31 -56 -29 -66 -43 -41 -63 11 -9 21
-7 48 9 18 11 40 20 49 20 12 0 15 7 11 25 -4 21 0 25 19 25 38 0 88 41 95 78
4 18 24 60 46 94 36 55 39 66 34 107 -23 185 -18 232 28 270 20 17 20 13 1
-32 -19 -46 -19 -110 0 -173 21 -70 19 -106 -10 -148 -66 -97 -80 -158 -49
-217 20 -39 15 -51 -37 -89 -49 -35 -94 -40 -102 -10 -6 25 -44 26 -74 2 -19
-14 -20 -20 -9 -34 11 -15 18 -16 43 -6 31 12 63 6 63 -11 0 -5 -14 -14 -32
-20 -31 -11 -31 -11 -13 -31 14 -15 26 -19 45 -15 34 8 61 -18 34 -33 -14 -8
-12 -13 22 -35 l38 -26 28 51 c15 28 32 56 37 62 5 6 12 28 16 48 4 21 11 35
16 32 17 -10 9 -59 -16 -99 -46 -75 -58 -107 -43 -116 21 -14 24 -11 42 30 10
21 31 58 47 82 44 67 40 90 -33 186 -67 88 -63 131 22 238 34 42 39 88 16 134
-8 15 -20 49 -26 74 -14 55 5 135 45 182 l25 30 -21 -48 c-28 -67 -27 -139 5
-215 32 -77 32 -100 1 -143 -14 -19 -37 -58 -51 -87 -33 -68 -28 -96 32 -173
60 -76 64 -119 17 -195 -17 -29 -36 -68 -41 -88 -9 -31 -8 -38 8 -46 31 -17
40 -12 40 22 0 17 15 59 34 92 59 107 56 147 -17 234 -61 73 -59 120 7 207 42
55 47 104 17 163 -44 86 -44 192 0 254 32 44 39 33 12 -19 -31 -60 -27 -121
12 -206 44 -95 44 -127 1 -189 -67 -98 -66 -129 8 -231 55 -75 56 -103 7 -200
-49 -98 -53 -143 -15 -157 14 -6 27 -10 28 -10 2 0 1 21 -1 47 -4 41 1 58 30
114 52 97 54 123 17 184 -17 28 -42 65 -55 84 -33 45 -31 74 8 135 17 27 37
59 43 71 6 12 18 19 30 16 23 -4 81 -4 111 1 17 2 31 -11 68 -67 57 -87 57
-118 -3 -194 -22 -28 -46 -67 -52 -86 -11 -32 -8 -42 30 -126 30 -65 42 -104
42 -134 -1 -39 0 -42 23 -37 38 7 34 68 -9 146 -18 34 -37 75 -40 92 -8 38 11
90 54 143 59 76 58 115 -6 208 -32 47 -36 58 -30 93 3 22 18 66 33 97 38 82
41 146 10 206 -30 58 -17 62 20 6 37 -56 36 -143 -3 -228 -34 -78 -30 -122 20
-186 60 -79 58 -128 -9 -209 -65 -80 -67 -107 -9 -218 19 -37 34 -81 34 -97 0
-33 15 -39 43 -18 16 11 17 16 3 54 -8 22 -26 58 -40 80 -49 76 -43 117 34
214 38 48 42 58 37 96 -3 25 -17 61 -33 85 -57 81 -64 93 -64 118 0 14 12 50
26 80 33 71 35 147 6 213 -26 59 -12 53 25 -11 35 -59 37 -143 4 -212 -32 -69
-28 -98 24 -165 71 -91 72 -133 6 -219 -72 -95 -76 -118 -32 -185 16 -24 37
-61 47 -82 18 -42 21 -44 43 -30 11 7 11 15 -5 44 -66 122 -67 124 -59 153 l8
29 10 -40 c5 -22 23 -59 39 -82 15 -23 32 -51 36 -62 7 -21 8 -21 46 5 33 23
36 28 22 36 -27 15 0 41 34 33 19 -4 31 0 45 15 18 20 18 20 -13 31 -18 6 -32
15 -32 20 0 17 32 23 63 11 25 -10 32 -9 43 6 11 14 10 20 -9 34 -30 24 -68
23 -74 -2 -8 -30 -53 -25 -101 9 -54 40 -57 46 -37 88 27 56 16 116 -33 193
-47 71 -50 94 -26 178 18 60 15 165 -5 185 -19 19 -12 31 8 13 43 -39 48 -92
25 -267 -5 -42 -2 -52 31 -100 20 -29 41 -72 47 -94 12 -46 57 -85 97 -85 19
0 23 -4 19 -25 -4 -18 -1 -25 11 -25 9 0 31 -9 49 -20 27 -16 37 -18 48 -9 25
20 15 35 -42 64 -38 19 -53 32 -50 42 4 8 6 17 6 19 0 13 41 1 70 -21 42 -31
58 -31 69 -3 7 19 0 25 -65 57 -49 24 -74 42 -74 54 0 24 30 22 81 -8 58 -32
85 -33 91 0 3 14 1 25 -4 25 -5 0 -47 17 -94 37 -71 32 -84 41 -84 61 0 27 14
25 92 -14 26 -13 61 -24 78 -24 28 0 30 3 30 35 0 33 -1 34 -29 29 -21 -4 -47
2 -88 21 -32 15 -71 30 -87 34 -17 4 -32 16 -37 29 -7 20 -5 22 20 22 16 0 58
-13 93 -30 108 -51 134 -41 125 52 -27 292 -254 552 -552 632 -61 17 -236 28
-290 20z m193 -132 l53 -3 -41 -37 -41 -37 16 -38 c9 -21 19 -37 23 -35 38 20
122 57 140 63 26 8 27 0 6 -50 -8 -20 -13 -39 -11 -42 3 -2 28 3 56 13 29 9
54 14 57 11 3 -3 -5 -21 -19 -39 -14 -18 -31 -55 -38 -81 -9 -38 -15 -47 -28
-42 -167 68 -337 75 -475 20 -73 -29 -76 -30 -76 -11 0 7 -15 44 -34 82 -19
38 -33 70 -32 72 2 2 29 -6 60 -16 63 -21 69 -15 40 39 -8 17 -13 33 -10 36
10 10 65 -9 111 -38 26 -17 49 -29 50 -27 2 2 10 21 20 43 l16 40 -42 38 -42
37 57 0 c31 0 56 4 56 9 0 5 7 26 16 47 l16 39 22 -45 c21 -44 22 -45 74 -48z
m-644 -254 c20 -23 36 -49 36 -57 0 -35 15 -44 46 -28 43 21 89 28 122 16 l30
-10 -73 -73 c-58 -58 -81 -74 -112 -79 -21 -4 -66 -18 -100 -32 -66 -26 -90
-30 -111 -17 -9 6 1 30 38 92 54 89 70 134 70 193 0 20 4 37 9 37 5 0 26 -19
45 -42z m1158 4 c-5 -49 14 -102 68 -192 39 -63 48 -85 38 -91 -21 -14 -45
-10 -107 16 -33 13 -78 28 -102 31 -36 6 -53 18 -111 78 -46 48 -64 74 -57 81
15 15 92 9 127 -9 40 -21 39 -22 52 20 14 42 68 107 84 101 6 -2 10 -18 8 -35z
m-551 -32 c41 -12 89 -54 89 -80 0 -13 -7 -16 -30 -12 -47 7 -80 -6 -91 -35
-13 -34 -3 -87 12 -62 12 22 97 19 110 -4 14 -24 -27 -122 -66 -161 -45 -46
-77 -52 -131 -25 -57 27 -98 93 -98 158 l-1 46 55 0 c63 0 77 13 58 53 -11 23
-20 27 -61 30 -26 2 -47 7 -47 12 0 5 12 22 26 39 38 46 104 61 175 41z m-130
-120 c31 -17 22 -27 -26 -27 -42 0 -57 12 -38 30 10 10 42 8 64 -3z m217 -11
c2 -12 -7 -16 -43 -16 -47 0 -57 9 -27 26 24 15 66 9 70 -10z"/>
<path d="M1467 1291 c-20 -14 -37 -29 -37 -33 0 -5 32 -8 70 -8 39 0 70 3 70
8 0 4 -15 19 -33 33 l-33 27 -37 -27z"/>
<path d="M1475 920 c-4 -6 7 -10 24 -10 17 0 31 5 31 10 0 6 -11 10 -24 10
-14 0 -28 -4 -31 -10z"/>
<path d="M1451 858 c14 -26 55 -33 84 -14 14 9 25 20 25 24 0 4 -27 7 -59 7
-54 1 -58 -1 -50 -17z"/>
</g>
</svg>
